<svg width="1327" height="796" viewBox="0 0 1327 796" fill="none" xmlns="http://www.w3.org/2000/svg">
<path d="M940 445.5C940 553.472 852.472 641 744.5 641C636.528 641 549 553.472 549 445.5C549 337.528 636.528 250 744.5 250C852.472 250 940 337.528 940 445.5Z" fill="#EEEEEE" fill-opacity="0.05"/>
<path d="M1047 445.5C1047 612.566 911.566 748 744.5 748C577.434 748 442 612.566 442 445.5C442 278.434 577.434 143 744.5 143C911.566 143 1047 278.434 1047 445.5Z" fill="#EEEEEE" fill-opacity="0.05"/>
<path d="M1152 445.5C1152 670.556 969.556 853 744.5 853C519.444 853 337 670.556 337 445.5C337 220.444 519.444 38 744.5 38C969.556 38 1152 220.444 1152 445.5Z" fill="#EEEEEE" fill-opacity="0.05"/>
<path d="M1263 445.5C1263 731.86 1030.86 964 744.5 964C458.14 964 226 731.86 226 445.5C226 159.14 458.14 -73 744.5 -73C1030.86 -73 1263 159.14 1263 445.5Z" fill="#EEEEEE" fill-opacity="0.05"/>
<path d="M1377 445.5C1377 794.82 1093.82 1078 744.5 1078C395.18 1078 112 794.82 112 445.5C112 96.1799 395.18 -187 744.5 -187C1093.82 -187 1377 96.1799 1377 445.5Z" fill="#EEEEEE" fill-opacity="0.05"/>
<path d="M1489 445.5C1489 856.676 1155.68 1190 744.5 1190C333.324 1190 0 856.676 0 445.5C0 34.324 333.324 -299 744.5 -299C1155.68 -299 1489 34.324 1489 445.5Z" fill="#EEEEEE" fill-opacity="0.05"/>
</svg>
